# xmcd
#
# Track frame offsets: 
#        182
#        17052
#        33800
#        45912
#        64850
#        80740
#        93187
#        109222
#        136965
#        152097
#        177355
#        202250
#
# Disc length: 2866 seconds
#
# Revision: 1
# Processed by: cddbd v1.5.2PL0 Copyright (c) Steve Scherf et al.
# Submitted via: ExactAudioCopy v1.0b3
#
DISCID=9a0b300c
DTITLE=Various Artist - Blues Still Alive 1924 - 1994
DYEAR=1994
DGENRE=Blues - Blues Rock
TTITLE0=Jimmie Vaughan - P.H. Ray - Hey-Yeah
TTITLE1=Johnny Winter - Drinkin' Blues
TTITLE2=R.L. Johnson - Cross Road Blues
TTITLE3=G. Love - Blues Music
TTITLE4=McKinley Morganfield - I Can't Be Satisfied
TTITLE5=Brownie McGhee - Picking My Tomatoes
TTITLE6=B. Schultz - J. Buttcher - Jealous Man
TTITLE7=Stevie Ray Vaughan - Ain't Gone ' N ' Give Up On Love
TTITLE8=Lonnie Johnson - Bring It On Home To Mama
TTITLE9=Allman - Cain - Schon - Temptation Is A Gun
TTITLE10=Mike Bloomfield - Al Kooper - Really
TTITLE11=Blind Willie McTell - It's A Good Little Thing
EXTD=
EXTT0=
EXTT1=
EXTT2=
EXTT3=
EXTT4=
EXTT5=
EXTT6=
EXTT7=
EXTT8=
EXTT9=
EXTT10=
EXTT11=
PLAYORDER=
